<?xml version="1.0" encoding="UTF-8" standalone="no"?>
<svg
   xmlns:dc="http://purl.org/dc/elements/1.1/"
   xmlns:cc="http://creativecommons.org/ns#"
   xmlns:rdf="http://www.w3.org/1999/02/22-rdf-syntax-ns#"
   xmlns:svg="http://www.w3.org/2000/svg"
   xmlns="http://www.w3.org/2000/svg"
   xmlns:sodipodi="http://sodipodi.sourceforge.net/DTD/sodipodi-0.dtd"
   xmlns:inkscape="http://www.inkscape.org/namespaces/inkscape"
   version="1.1"
   x="0"
   y="0"
   width="153.856"
   height="103.323"
   viewBox="0, 0, 153.856, 103.323"
   id="svg31"
   sodipodi:docname="Viacloud-icon.svg"
   inkscape:export-filename="C:\nextcloud-desktop-2.6.4\admin\win\nsi\installer.png"
   inkscape:export-xdpi="39.952385"
   inkscape:export-ydpi="39.952385"
   inkscape:version="0.92.4 (5da689c313, 2019-01-14)">
  <metadata
     id="metadata37">
    <rdf:RDF>
      <cc:Work
         rdf:about="">
        <dc:format>image/svg+xml</dc:format>
        <dc:type
           rdf:resource="http://purl.org/dc/dcmitype/StillImage" />
      </cc:Work>
    </rdf:RDF>
  </metadata>
  <defs
     id="defs35" />
  <sodipodi:namedview
     pagecolor="#ffffff"
     bordercolor="#666666"
     borderopacity="1"
     objecttolerance="10"
     gridtolerance="10"
     guidetolerance="10"
     inkscape:pageopacity="0"
     inkscape:pageshadow="2"
     inkscape:window-width="1600"
     inkscape:window-height="837"
     id="namedview33"
     showgrid="false"
     inkscape:zoom="6.4651628"
     inkscape:cx="76.928001"
     inkscape:cy="51.661499"
     inkscape:window-x="-8"
     inkscape:window-y="-8"
     inkscape:window-maximized="1"
     inkscape:current-layer="svg31" />
  <g
     id="Layer_1">
    <g
       id="g26">
      <path
         d="M75.586,23.847 C74.348,24 72.635,24.304 71.911,24.495 C71.226,24.704 71.207,24.723 71.321,25.428 C71.569,26.951 70.674,29.559 69.512,30.664 L68.998,31.14 L69.341,35.576 C69.512,38.013 69.664,40.241 69.664,40.527 C69.684,41.041 69.722,41.06 70.731,41.06 C72.159,41.06 73.568,41.384 74.92,42.031 C75.796,42.45 76.119,42.507 76.272,42.336 C76.405,42.202 77.909,40.051 79.642,37.518 L82.784,32.949 L82.403,31.806 C81.755,29.902 82.231,27.636 83.717,25.713 L84.326,24.895 L83.717,24.704 C81.87,24.095 77.433,23.619 75.586,23.847 L75.586,23.847 z"
         fill="#F16528"
         id="path10" />
      <path
         d="M62.467,29.502 C60.887,30.816 58.849,33.082 57.707,34.796 L56.945,35.919 L57.421,36.433 C58.012,37.08 58.297,38.185 58.221,39.537 L58.164,40.603 L60.43,43.002 L62.715,45.42 L63.953,44.145 C64.676,43.402 65.723,42.602 66.409,42.221 L67.627,41.593 L67.513,40.698 C67.456,40.222 67.323,38.413 67.209,36.681 C66.923,32.035 66.885,31.92 66.352,31.92 C66.085,31.92 65.609,31.654 65.228,31.254 C64.714,30.74 64.505,30.34 64.333,29.445 C64.219,28.817 64.067,28.303 63.991,28.303 C63.934,28.303 63.229,28.836 62.467,29.502 L62.467,29.502 z"
         fill="#F16528"
         id="path12" />
      <path
         d="M92.647,30.683 C92.094,31.711 90.19,33.406 88.972,33.958 C88.134,34.339 87.563,34.472 86.554,34.472 L85.24,34.491 L81.755,39.384 C79.832,42.069 78.252,44.335 78.252,44.392 C78.252,44.468 78.557,44.887 78.937,45.306 C79.832,46.373 81.032,48.829 81.432,50.485 C81.622,51.209 81.774,51.837 81.794,51.875 C81.813,51.932 92.951,50.98 93.789,50.866 C94.284,50.771 94.417,50.638 94.608,50.009 C94.893,49.057 96.436,47.382 97.616,46.715 C98.778,46.087 100.51,45.63 101.71,45.63 C102.338,45.63 102.624,45.554 102.624,45.382 C102.624,44.983 101.596,42.069 100.91,40.489 C100.072,38.547 98.778,36.357 97.445,34.548 C96.188,32.853 93.541,30.016 93.218,30.016 C93.104,30.016 92.837,30.321 92.647,30.683 L92.647,30.683 z"
         fill="#F16528"
         id="path14" />
      <path
         d="M53.537,43.764 C52.947,45.858 52.547,47.991 52.395,50.161 L52.242,52.103 L52.89,52.103 C53.613,52.103 54.565,52.941 54.756,53.741 C54.889,54.274 54.794,54.274 57.916,53.989 L60.354,53.76 L60.354,52.922 C60.354,51.875 60.849,49.476 61.306,48.314 L61.648,47.438 L59.63,45.249 C58.526,44.049 57.498,42.945 57.364,42.793 C57.155,42.545 57.079,42.564 56.736,42.869 C56.165,43.402 54.984,43.364 54.394,42.812 L53.937,42.374 L53.537,43.764 L53.537,43.764 z"
         fill="#F16528"
         id="path16" />
      <path
         d="M87.201,54.693 C84.954,54.807 82.879,54.941 82.593,54.941 C82.136,54.96 82.079,55.036 81.965,55.855 C81.679,58.025 81.222,59.663 80.404,61.281 L79.547,62.995 L81.146,64.651 C82.022,65.546 83.888,67.488 85.297,68.935 L87.829,71.601 L89.752,71.62 C92.209,71.639 93.313,72.096 95.179,73.905 L96.474,75.162 L97.54,73.772 C100.529,69.868 102.909,64.137 103.481,59.51 L103.614,58.463 L101.824,58.463 C98.835,58.463 96.569,57.416 95.198,55.379 L94.532,54.407 L92.913,54.426 C92.018,54.426 89.448,54.56 87.201,54.693 L87.201,54.693 z"
         fill="#F16528"
         id="path18" />
      <path
         d="M56.622,56.235 L55.06,56.312 L54.946,56.959 C54.756,57.911 53.975,58.768 53.29,58.768 C52.985,58.768 52.737,58.825 52.737,58.901 C52.737,58.996 52.947,59.91 53.194,60.958 C53.766,63.261 54.432,65.242 55.232,66.974 L55.822,68.269 L56.298,67.698 C56.66,67.279 56.926,67.146 57.479,67.146 C57.859,67.146 58.335,67.26 58.545,67.412 C58.907,67.66 59.04,67.507 60.792,64.937 L62.658,62.195 L61.896,60.634 C61.477,59.758 60.982,58.387 60.792,57.587 L60.449,56.102 L59.306,56.14 C58.678,56.159 57.459,56.216 56.622,56.235 L56.622,56.235 z"
         fill="#F16528"
         id="path20" />
      <path
         d="M62.086,66.784 C60.411,69.145 60.201,69.526 60.373,69.945 C60.677,70.782 60.582,72.706 60.163,73.505 L59.801,74.248 L60.601,75.2 C61.039,75.733 62.048,76.704 62.829,77.389 C64.219,78.57 67.494,80.855 67.818,80.855 C67.894,80.855 67.97,80.341 67.97,79.712 C67.97,78.075 68.77,76.685 69.741,76.666 C70.122,76.666 70.122,77.028 69.722,71.449 L69.398,67.089 L68.389,66.746 C67.189,66.327 66.294,65.813 65.095,64.823 C64.6,64.423 64.162,64.099 64.105,64.099 C64.047,64.099 63.153,65.299 62.086,66.784 L62.086,66.784 z"
         fill="#F16528"
         id="path22" />
      <path
         d="M77.052,65.432 C76.196,66.098 74.177,66.955 72.901,67.184 C72.235,67.298 71.664,67.393 71.645,67.412 C71.626,67.431 71.759,69.602 71.949,72.21 L72.292,76.99 L73.263,77.904 C74.482,79.027 75.224,80.531 75.358,82.131 C75.415,82.93 75.529,83.349 75.739,83.425 C76.234,83.616 80.88,83.539 82.098,83.33 C84.021,82.987 85.487,82.568 86.973,81.959 L88.363,81.388 L87.43,80.398 C85.602,78.475 85.011,76.209 85.716,73.867 C85.773,73.658 77.947,65.051 77.7,65.051 C77.605,65.051 77.319,65.223 77.052,65.432 L77.052,65.432 z"
         fill="#F16528"
         id="path24" />
    </g>
    <path
       d="M31.715,103.283 C17.433,102.525 -0.367,87.525 0.006,63.349 C0.126,54.939 0.846,36.946 35.639,24.174 C47.039,7.374 57.639,-0 79.541,-0 C107.541,-0 120.315,22.549 127.515,40.549 C165.104,41.374 159.904,100.974 128.077,103.283 C109.304,103.374 31.715,103.283 31.715,103.283 z M39.869,90.14 C77.535,90.473 100.486,90.218 116.669,90.14 C144.069,90.14 147.269,52.94 116.869,51.34 C110.662,35.823 102.054,13.382 77.918,13.382 C61.918,13.182 55.735,22.14 43.069,36.14 C1.069,44.14 11.269,90.14 39.869,90.14 z"
       fill="#207EAD"
       id="path28" />
  </g>
</svg>
