<?xml version="1.0" encoding="UTF-8"?>
<!DOCTYPE svg PUBLIC "-//W3C//DTD SVG 1.1//EN" "http://www.w3.org/Graphics/SVG/1.1/DTD/svg11.dtd">
<svg version="1.1" xmlns="http://www.w3.org/2000/svg" xmlns:xlink="http://www.w3.org/1999/xlink" x="0" y="0" width="1344" height="1344" viewBox="0, 0, 1344, 1344">
  <g id="Layer_1">
    <g>
      <path d="M564.668,708.256 L497.376,708.256 C488.355,708.256 481.043,715.569 481.043,724.59 L481.043,892.012 C481.043,901.033 488.355,908.345 497.376,908.345 L846.624,908.345 C855.645,908.345 862.957,901.033 862.958,892.012 L862.958,724.59 C862.958,715.569 855.645,708.256 846.624,708.256 L779.332,708.256 L779.332,781.634 C779.332,790.798 771.903,798.227 762.739,798.227 L581.261,798.227 C572.097,798.227 564.668,790.798 564.668,781.634 L564.668,708.256 z" fill="#DD863D"/>
      <path d="M847.726,687.241 L759.114,687.241 L759.114,761.98 C759.114,771.144 751.685,778.573 742.521,778.573 L601.48,778.573 C592.315,778.573 584.887,771.144 584.887,761.98 L584.887,687.241 L496.274,687.241 C487.862,687.241 481.043,680.421 481.043,672.009 L481.043,542.538 C481.043,534.125 487.862,527.306 496.274,527.306 L625.746,527.306 C634.158,527.306 640.978,534.125 640.978,542.538 L640.978,672.009 C640.978,680.421 647.797,687.241 656.209,687.241 L687.791,687.241 C696.203,687.241 703.022,680.421 703.022,672.009 L703.022,542.538 C703.022,534.125 709.842,527.306 718.254,527.306 L847.726,527.306 C856.138,527.306 862.957,534.125 862.957,542.538 L862.958,672.009 C862.957,680.421 856.138,687.241 847.726,687.241 z" fill="#DD863D"/>
    </g>
    <path d="M301.675,1094.811 C184.696,1088.6 38.902,965.74 41.96,767.725 C42.944,698.841 48.837,551.471 333.816,446.858 C427.189,309.255 514.01,248.859 693.396,248.858 C922.734,248.856 1027.366,433.547 1086.339,580.978 C1394.215,587.737 1351.624,1075.899 1090.943,1094.811 C937.179,1095.557 301.675,1094.811 301.675,1094.811 z M368.459,987.159 C676.974,989.889 864.954,987.802 997.5,987.159 C1221.924,987.159 1248.134,682.467 999.138,669.362 C948.304,542.275 877.799,358.468 680.108,358.469 C549.058,356.831 498.417,430.195 394.669,544.864 C50.662,610.389 134.207,987.159 368.459,987.159 z" fill="#95969B"/>
  </g>
</svg>
