<?xml version="1.0" encoding="UTF-8"?>
<!DOCTYPE svg PUBLIC "-//W3C//DTD SVG 1.1//EN" "http://www.w3.org/Graphics/SVG/1.1/DTD/svg11.dtd">
<svg version="1.1" xmlns="http://www.w3.org/2000/svg" xmlns:xlink="http://www.w3.org/1999/xlink" x="0" y="0" width="1024" height="1024" viewBox="0, 0, 1024, 1024">
  <g id="Layer_1">
    <g>
      <path d="M423.885,547.789 L367.596,547.789 C360.05,547.789 353.933,553.906 353.933,561.452 L353.933,701.5 C353.933,709.046 360.05,715.163 367.596,715.163 L659.74,715.163 C667.286,715.163 673.404,709.046 673.404,701.5 L673.404,561.453 C673.404,553.907 667.286,547.789 659.74,547.789 L603.451,547.789 L603.451,609.169 C603.451,616.835 597.237,623.049 589.571,623.049 L437.766,623.049 C430.1,623.049 423.885,616.835 423.885,609.169 L423.885,547.789 z" fill="#FFFFFF"/>
      <path d="M660.663,530.21 L586.539,530.21 L586.539,592.729 C586.539,600.394 580.324,606.609 572.659,606.609 L454.678,606.609 C447.012,606.609 440.798,600.394 440.798,592.729 L440.798,530.21 L366.674,530.21 C359.637,530.21 353.933,524.505 353.933,517.469 L353.933,409.166 C353.933,402.129 359.637,396.425 366.674,396.425 L474.977,396.425 C482.014,396.425 487.718,402.129 487.718,409.166 L487.718,517.469 C487.718,524.505 493.423,530.21 500.46,530.21 L526.877,530.21 C533.914,530.21 539.618,524.505 539.618,517.469 L539.618,409.166 C539.618,402.129 545.323,396.425 552.36,396.425 L660.662,396.425 C667.699,396.425 673.404,402.129 673.404,409.166 L673.404,517.469 C673.404,524.505 667.699,530.21 660.662,530.21 z" fill="#FFFFFF"/>
    </g>
    <path d="M211.081,850.873 C116.031,845.826 -2.432,745.998 0.053,585.103 C0.852,529.132 5.64,409.388 237.197,324.386 C313.066,212.579 383.611,163.505 529.37,163.504 C715.716,163.502 800.733,313.571 848.651,433.364 C1098.812,438.856 1064.205,835.506 852.392,850.873 C727.453,851.479 211.081,850.873 211.081,850.873 z M265.346,763.402 C516.026,765.62 668.767,763.924 776.466,763.401 C958.819,763.402 980.115,515.828 777.797,505.179 C736.492,401.916 679.204,252.566 518.573,252.567 C412.089,251.236 370.941,310.847 286.642,404.02 C7.123,457.262 75.007,763.402 265.346,763.402 z" fill="#FFFFFF"/>
  </g>
</svg>
