<?xml version="1.0" encoding="UTF-8" standalone="no"?>
<!-- Creator: CorelDRAW 2018 (64 Bit Versão de avaliação) -->

<svg
   xmlns:dc="http://purl.org/dc/elements/1.1/"
   xmlns:cc="http://creativecommons.org/ns#"
   xmlns:rdf="http://www.w3.org/1999/02/22-rdf-syntax-ns#"
   xmlns:svg="http://www.w3.org/2000/svg"
   xmlns="http://www.w3.org/2000/svg"
   xmlns:sodipodi="http://sodipodi.sourceforge.net/DTD/sodipodi-0.dtd"
   xmlns:inkscape="http://www.inkscape.org/namespaces/inkscape"
   xml:space="preserve"
   width="210mm"
   height="297mm"
   version="1.1"
   style="shape-rendering:geometricPrecision; text-rendering:geometricPrecision; image-rendering:optimizeQuality; fill-rule:evenodd; clip-rule:evenodd"
   viewBox="0 0 21000 29700"
   id="svg17"
   sodipodi:docname="state-offline.svg"
   inkscape:export-filename="C:\Viacloud\viacloud-builder\desktop\theme\colored-riocloud\state-offline-256.png"
   inkscape:export-xdpi="19.511171"
   inkscape:export-ydpi="19.511171"
   inkscape:version="0.92.4 (5da689c313, 2019-01-14)"><metadata
   id="metadata21"><rdf:RDF><cc:Work
       rdf:about=""><dc:format>image/svg+xml</dc:format><dc:type
         rdf:resource="http://purl.org/dc/dcmitype/StillImage" /><dc:title></dc:title></cc:Work></rdf:RDF></metadata><sodipodi:namedview
   pagecolor="#ffffff"
   bordercolor="#666666"
   borderopacity="1"
   objecttolerance="10"
   gridtolerance="10"
   guidetolerance="10"
   inkscape:pageopacity="0"
   inkscape:pageshadow="2"
   inkscape:window-width="1600"
   inkscape:window-height="837"
   id="namedview19"
   showgrid="false"
   inkscape:zoom="6.7277216"
   inkscape:cx="-210.65993"
   inkscape:cy="174.35352"
   inkscape:window-x="-8"
   inkscape:window-y="-8"
   inkscape:window-maximized="1"
   inkscape:current-layer="svg17" />
 <defs
   id="defs4">
  <style
   type="text/css"
   id="style2">
   <![CDATA[
    .fil1 {fill:#95969B}
    .fil0 {fill:#95969B}
   ]]>
  </style>
 </defs>
 <g
   id="Camada_x0020_1"
   transform="matrix(0.01269665,0,0,0.012998,-6092.7105,25707.09)">
  <metadata
   id="CorelCorpID_0Corel-Layer" />
  <g
   id="_1964990962784">
   <g
   id="g11">
    <path
   class="fil0"
   d="M 7660.17,15809.27 H 5879.74 c -238.68,0 -432.14,193.49 -432.14,432.17 v 4429.71 c 0,238.68 193.46,432.14 432.14,432.14 h 9240.52 c 238.68,0 432.14,-193.46 432.17,-432.14 v -4429.71 c 0,-238.68 -193.49,-432.17 -432.17,-432.17 h -1780.43 v 1941.46 c 0,242.47 -196.56,439.03 -439.03,439.03 H 8099.2 c -242.47,0 -439.03,-196.56 -439.03,-439.03 z"
   id="path7"
   inkscape:connector-curvature="0"
   style="fill:#95969b" />
    <path
   class="fil0"
   d="m 15149.42,15253.25 h -2344.53 v 1977.47 c 0,242.47 -196.56,439.02 -439.02,439.02 H 8634.16 c -242.49,0 -439.02,-196.55 -439.02,-439.02 V 15253.25 H 5850.58 c -222.56,0 -402.98,-180.44 -402.98,-403.01 v -3425.59 c 0,-222.59 180.42,-403.01 402.98,-403.01 H 9276.2 c 222.56,0 403.01,180.42 403.01,403.01 v 3425.59 c 0,222.57 180.42,403.01 402.99,403.01 h 835.6 c 222.57,0 402.99,-180.44 402.99,-403.01 v -3425.59 c 0,-222.59 180.45,-403.01 403.01,-403.01 h 3425.62 c 222.56,0 402.98,180.42 402.98,403.01 l 0.03,3425.59 c -0.03,222.57 -180.45,403.01 -403.01,403.01 z"
   id="path9"
   inkscape:connector-curvature="0"
   style="fill:#95969b" />
   </g>
   <path
   class="fil1"
   d="m 701.82,26036.87 c -3095.07,-164.33 -6952.54,-3415 -6871.63,-8654.15 26.04,-1822.55 181.96,-5721.72 7722.02,-8489.6 2470.5,-3640.75 4767.64,-5238.73 9513.89,-5238.75 6067.9,-0.06 8836.29,4886.56 10396.62,8787.34 8145.89,178.83 7019,13094.78 121.81,13595.16 -4068.34,19.74 -20882.71,0 -20882.71,0 z m 1766.99,-2848.29 c 8162.79,72.23 13136.43,17.01 16643.38,0 5937.88,0 6631.36,-8061.64 43.34,-8408.38 -1344.99,-3362.51 -3210.43,-8225.73 -8441.01,-8225.71 -3467.36,-43.34 -4807.24,1897.75 -7552.24,4931.7 -9101.85,1733.69 -6891.39,11702.39 -693.47,11702.39 z"
   id="path13"
   inkscape:connector-curvature="0"
   style="fill:#95969b" />
  </g>
 </g>
</svg>