<?xml version="1.0" encoding="UTF-8" standalone="no"?>
<svg
   xmlns:dc="http://purl.org/dc/elements/1.1/"
   xmlns:cc="http://creativecommons.org/ns#"
   xmlns:rdf="http://www.w3.org/1999/02/22-rdf-syntax-ns#"
   xmlns:svg="http://www.w3.org/2000/svg"
   xmlns="http://www.w3.org/2000/svg"
   xmlns:sodipodi="http://sodipodi.sourceforge.net/DTD/sodipodi-0.dtd"
   xmlns:inkscape="http://www.inkscape.org/namespaces/inkscape"
   version="1.1"
   x="0"
   y="0"
   width="256"
   height="128"
   viewBox="0, 0, 256, 128"
   id="svg11"
   sodipodi:docname="wizard_logo.svg"
   inkscape:export-filename="C:\Viacloud\viacloud-builder\desktop\theme\colored-riocloud\wizard_logo@2x.png"
   inkscape:export-xdpi="124.84"
   inkscape:export-ydpi="124.84"
   inkscape:version="0.92.4 (5da689c313, 2019-01-14)">
  <metadata
     id="metadata17">
    <rdf:RDF>
      <cc:Work
         rdf:about="">
        <dc:format>image/svg+xml</dc:format>
        <dc:type
           rdf:resource="http://purl.org/dc/dcmitype/StillImage" />
        <dc:title></dc:title>
      </cc:Work>
    </rdf:RDF>
  </metadata>
  <defs
     id="defs15" />
  <sodipodi:namedview
     pagecolor="#ffffff"
     bordercolor="#666666"
     borderopacity="1"
     objecttolerance="10"
     gridtolerance="10"
     guidetolerance="10"
     inkscape:pageopacity="0"
     inkscape:pageshadow="2"
     inkscape:window-width="1600"
     inkscape:window-height="837"
     id="namedview13"
     showgrid="false"
     inkscape:zoom="1.4882812"
     inkscape:cx="128"
     inkscape:cy="64"
     inkscape:window-x="-8"
     inkscape:window-y="-8"
     inkscape:window-maximized="1"
     inkscape:current-layer="svg11" />
  <g
     id="Layer_1"
     inkscape:export-xdpi="82.723015"
     inkscape:export-ydpi="82.723015">
    <g
       id="g6">
      <path
         d="M114.901,68.425 L106.688,68.425 C105.587,68.425 104.695,69.317 104.695,70.418 L104.695,90.851 C104.695,91.952 105.587,92.845 106.688,92.845 L149.312,92.845 C150.413,92.845 151.305,91.952 151.305,90.851 L151.305,70.418 C151.305,69.317 150.413,68.425 149.312,68.425 L141.099,68.425 L141.099,77.38 C141.099,78.499 140.193,79.405 139.074,79.405 L116.926,79.405 C115.807,79.405 114.901,78.499 114.901,77.38 L114.901,68.425 z"
         fill="#DD863D"
         id="path2" />
      <path
         d="M149.446,65.86 L138.632,65.86 L138.632,74.982 C138.632,76.1 137.725,77.007 136.607,77.007 L119.393,77.007 C118.275,77.007 117.368,76.1 117.368,74.982 L117.368,65.86 L106.554,65.86 C105.527,65.86 104.695,65.028 104.695,64.001 L104.695,48.2 C104.695,47.173 105.527,46.341 106.554,46.341 L122.355,46.341 C123.381,46.341 124.214,47.173 124.214,48.2 L124.214,64.001 C124.214,65.028 125.046,65.86 126.073,65.86 L129.927,65.86 C130.954,65.86 131.786,65.028 131.786,64.001 L131.786,48.2 C131.786,47.173 132.618,46.341 133.645,46.341 L149.446,46.341 C150.473,46.341 151.305,47.173 151.305,48.2 L151.305,64.001 C151.305,65.028 150.473,65.86 149.446,65.86 z"
         fill="#DD863D"
         id="path4" />
    </g>
    <path
       d="M82.804,115.602 C68.527,114.844 50.734,99.849 51.107,75.683 C51.227,67.276 51.946,49.29 86.726,36.523 C98.122,19.729 108.718,12.358 130.611,12.358 C158.601,12.357 171.371,34.898 178.568,52.891 C216.143,53.716 210.945,113.294 179.13,115.602 C160.364,115.693 82.804,115.602 82.804,115.602 z M90.954,102.464 C128.607,102.797 151.549,102.542 167.726,102.464 C195.115,102.464 198.314,65.277 167.925,63.678 C161.721,48.168 153.117,25.735 128.989,25.735 C112.995,25.535 106.815,34.489 94.153,48.484 C52.169,56.481 62.365,102.464 90.954,102.464 z"
       fill="#95969B"
       id="path8" />
  </g>
</svg>
